<svg version="1.1" id="Layer_1" xmlns="http://www.w3.org/2000/svg" xmlns:xlink="http://www.w3.org/1999/xlink" x="0px" y="0px"
	 width="100%" viewBox="0 0 768 768" enable-background="new 0 0 768 768" xml:space="preserve">
<path fill="#000000" opacity="1.000000" stroke="none" 
	d="
M417.000000,769.000000 
	C278.000000,769.000000 139.500000,769.000000 1.000000,769.000000 
	C1.000000,513.000000 1.000000,257.000000 1.000000,1.000000 
	C257.000000,1.000000 513.000000,1.000000 769.000000,1.000000 
	C769.000000,257.000000 769.000000,513.000000 769.000000,769.000000 
	C651.833313,769.000000 534.666687,769.000000 417.000000,769.000000 
M522.658813,292.848602 
	C530.793396,286.561371 538.904053,280.242767 547.068359,273.994324 
	C558.849915,264.977509 570.724487,256.081665 582.461426,247.007446 
	C599.613892,233.746185 616.656616,220.342987 633.798401,207.067810 
	C637.977539,203.831375 640.274780,196.883316 638.713135,191.228378 
	C637.414551,186.525757 631.418701,181.328094 626.708435,181.019714 
	C615.691895,180.298508 604.672424,179.612335 593.648621,179.013626 
	C580.300415,178.288681 566.947937,177.639954 553.594788,177.010498 
	C538.417786,176.295074 523.238159,175.637405 507.741760,174.304092 
	C502.651764,163.519958 497.958984,152.525574 492.385468,141.997406 
	C482.164978,122.691330 467.688690,106.615227 451.515442,92.242081 
	C435.581573,78.081718 417.444092,67.215904 397.745148,58.766804 
	C375.516327,49.232620 352.312683,44.134460 328.380768,43.267841 
	C314.733643,42.773655 300.876190,44.164127 287.310394,46.091919 
	C248.258774,51.641434 214.566071,68.928047 185.440979,95.167824 
	C171.198746,107.999138 159.472244,122.995605 149.651810,139.533508 
	C132.709961,168.063950 122.835602,198.949692 122.244316,231.942947 
	C121.080582,296.877991 121.072357,361.838013 121.050812,426.787872 
	C121.032249,482.734985 121.731979,538.682007 121.973595,594.629700 
	C122.120415,628.628174 122.010544,662.627747 121.994064,696.626831 
	C121.989273,706.524780 125.935425,714.662354 134.348389,719.591919 
	C140.066086,722.942200 146.812790,724.536194 154.019073,727.013672 
	C164.981918,726.984436 175.944763,726.955200 187.786880,726.971008 
	C189.250488,726.938416 190.714111,726.905884 193.085922,726.991516 
	C334.366394,726.994568 475.646881,727.004456 616.927368,726.958374 
	C620.169495,726.957336 623.540710,726.780640 626.630981,725.905945 
	C639.967590,722.130920 647.335693,713.416260 647.774658,701.834717 
	C648.357422,686.459839 647.861572,670.989380 646.848999,655.624634 
	C645.896118,641.164673 644.401978,626.655945 641.820557,612.408875 
	C638.578918,594.517639 634.625000,576.696716 629.831360,559.158936 
	C622.461365,532.195862 612.205566,506.203644 599.908691,481.110046 
	C592.474792,465.940063 584.461548,451.011963 575.909607,436.444244 
	C568.010681,422.988861 559.371643,409.932587 550.456848,397.119141 
	C542.069763,385.064301 532.896851,373.556213 524.049194,360.894653 
	C523.375977,338.312897 522.702759,315.731171 522.658813,292.848602 
z"/>
<path fill="#404041" opacity="1.000000" stroke="none" 
	d="
M192.177719,726.873291 
	C190.714111,726.905884 189.250488,726.938416 187.103668,726.607178 
	C177.012543,726.165771 167.604538,726.041687 158.196716,726.053101 
	C156.497253,726.055176 154.798447,726.613892 153.099350,726.915588 
	C146.812790,724.536194 140.066086,722.942200 134.348389,719.591919 
	C125.935425,714.662354 121.989273,706.524780 121.994064,696.626831 
	C122.010544,662.627747 122.120415,628.628174 121.973595,594.629700 
	C121.731979,538.682007 121.032249,482.734985 121.050812,426.787872 
	C121.072357,361.838013 121.080582,296.877991 122.244316,231.942947 
	C122.835602,198.949692 132.709961,168.063950 149.651810,139.533508 
	C159.472244,122.995605 171.198746,107.999138 185.440979,95.167824 
	C214.566071,68.928047 248.258774,51.641434 287.310394,46.091919 
	C300.876190,44.164127 314.733643,42.773655 328.380768,43.267841 
	C352.312683,44.134460 375.516327,49.232620 397.745148,58.766804 
	C417.444092,67.215904 435.581573,78.081718 451.515442,92.242081 
	C467.688690,106.615227 482.164978,122.691330 492.385468,141.997406 
	C497.958984,152.525574 502.651764,163.519958 507.669373,174.917542 
	C505.882080,176.140564 504.180237,176.790329 502.450287,177.353714 
	C474.305756,186.519287 457.805725,205.656693 453.387726,234.963715 
	C449.504028,260.726135 462.984650,282.491608 488.064026,288.965607 
	C499.016052,291.792786 510.685760,291.839844 522.029541,293.149414 
	C522.702759,315.731171 523.375977,338.312897 523.664795,361.434082 
	C522.171631,362.303253 521.077759,362.698883 519.951965,362.952972 
	C491.489227,369.377686 464.502625,379.593903 439.780853,395.190765 
	C385.726776,429.293304 357.864410,478.790405 353.899445,542.252930 
	C352.914307,558.020691 352.563538,573.954224 349.919708,589.470520 
	C338.268585,657.849854 279.774292,714.164917 211.077850,724.091919 
	C204.775421,725.002625 198.477646,725.945374 192.177719,726.873291 
M316.637817,159.086655 
	C315.542999,159.844757 314.431702,160.580246 313.355835,161.364288 
	C291.839233,177.044556 284.069244,205.514053 294.611664,230.021378 
	C305.154114,254.528854 331.247101,268.927582 357.308411,263.688934 
	C381.218323,258.882721 396.690186,244.171127 402.695801,220.499619 
	C408.394348,198.038284 399.236572,174.644501 380.365631,161.000595 
	C361.911896,147.658340 337.237244,146.787964 316.637817,159.086655 
z"/>
<path fill="#E6E6E6" opacity="1.000000" stroke="none" 
	d="
M192.631821,726.932373 
	C198.477646,725.945374 204.775421,725.002625 211.077850,724.091919 
	C279.774292,714.164917 338.268585,657.849854 349.919708,589.470520 
	C352.563538,573.954224 352.914307,558.020691 353.899445,542.252930 
	C357.864410,478.790405 385.726776,429.293304 439.780853,395.190765 
	C464.502625,379.593903 491.489227,369.377686 519.951965,362.952972 
	C521.077759,362.698883 522.171631,362.303253 523.674988,361.890564 
	C532.896851,373.556213 542.069763,385.064301 550.456848,397.119141 
	C559.371643,409.932587 568.010681,422.988861 575.909607,436.444244 
	C584.461548,451.011963 592.474792,465.940063 599.908691,481.110046 
	C612.205566,506.203644 622.461365,532.195862 629.831360,559.158936 
	C634.625000,576.696716 638.578918,594.517639 641.820557,612.408875 
	C644.401978,626.655945 645.896118,641.164673 646.848999,655.624634 
	C647.861572,670.989380 648.357422,686.459839 647.774658,701.834717 
	C647.335693,713.416260 639.967590,722.130920 626.630981,725.905945 
	C623.540710,726.780640 620.169495,726.957336 616.927368,726.958374 
	C475.646881,727.004456 334.366394,726.994568 192.631821,726.932373 
z"/>
<path fill="#FFA400" opacity="1.000000" stroke="none" 
	d="
M522.344177,292.999023 
	C510.685760,291.839844 499.016052,291.792786 488.064026,288.965607 
	C462.984650,282.491608 449.504028,260.726135 453.387726,234.963715 
	C457.805725,205.656693 474.305756,186.519287 502.450287,177.353714 
	C504.180237,176.790329 505.882080,176.140564 507.828308,175.242798 
	C523.238159,175.637405 538.417786,176.295074 553.594788,177.010498 
	C566.947937,177.639954 580.300415,178.288681 593.648621,179.013626 
	C604.672424,179.612335 615.691895,180.298508 626.708435,181.019714 
	C631.418701,181.328094 637.414551,186.525757 638.713135,191.228378 
	C640.274780,196.883316 637.977539,203.831375 633.798401,207.067810 
	C616.656616,220.342987 599.613892,233.746185 582.461426,247.007446 
	C570.724487,256.081665 558.849915,264.977509 547.068359,273.994324 
	C538.904053,280.242767 530.793396,286.561371 522.344177,292.999023 
z"/>
<path fill="#919191" opacity="1.000000" stroke="none" 
	d="
M153.559204,726.964600 
	C154.798447,726.613892 156.497253,726.055176 158.196716,726.053101 
	C167.604538,726.041687 177.012543,726.165771 186.664032,726.584656 
	C175.944763,726.955200 164.981918,726.984436 153.559204,726.964600 
z"/>
<path fill="#FDFDFD" opacity="1.000000" stroke="none" 
	d="
M316.967041,158.931290 
	C337.237244,146.787964 361.911896,147.658340 380.365631,161.000595 
	C399.236572,174.644501 408.394348,198.038284 402.695801,220.499619 
	C396.690186,244.171127 381.218323,258.882721 357.308411,263.688934 
	C331.247101,268.927582 305.154114,254.528854 294.611664,230.021378 
	C284.069244,205.514053 291.839233,177.044556 313.355835,161.364288 
	C314.431702,160.580246 315.542999,159.844757 316.967041,158.931290 
M352.432556,239.009476 
	C367.861664,236.793594 380.663483,222.816269 379.508331,205.527008 
	C378.262909,186.886520 363.930573,174.539734 345.658234,174.823227 
	C330.777588,175.054123 312.319214,188.648605 314.962921,211.896912 
	C316.879120,228.747269 334.286743,241.881424 352.432556,239.009476 
z"/>
<path fill="#2C2C2C" opacity="1.000000" stroke="none" 
	d="
M352.015228,239.052399 
	C334.286743,241.881424 316.879120,228.747269 314.962921,211.896912 
	C312.319214,188.648605 330.777588,175.054123 345.658234,174.823227 
	C363.930573,174.539734 378.262909,186.886520 379.508331,205.527008 
	C380.663483,222.816269 367.861664,236.793594 352.015228,239.052399 
z"/>
</svg>